{"title":"The.River.Why.2010.BRRip.XviD.Ac3.Feel-Free","uid":6814953,"size":1270025167,"categoryP":"video","categoryS":"movies","magnet":"?xt=urn:btih:482f20c5de836a9fb5e46d40baf156eb9081eea1&amp;dn=The.River.Why.2010.BRRip.XviD.Ac3.Feel-Free&amp;tr=udp%3A%2F%2Ftracker.openbittorrent.com%3A80&amp;tr=udp%3A%2F%2Fopen.demonii.com%3A1337&amp;tr=udp%3A%2F%2Ftracker.coppersurfer.tk%3A6969&amp;tr=udp%3A%2F%2Fexodus.desync.com%3A6969","seeders":1,"leechers":2,"uploader":"HeroMaster","files":-1,"time":1321176459,"description":"The.River.Why.2010.BRRip.XviD.Ac3.Feel-Free\n\nGenre:Drama\nLanguage:English\nIMDb:http://www.imdb.com/title/tt1241329/\nSource:720p.BluRay.x264.MELiTE Thanks!\n\nFormat : AVI\nFormat/Info : Audio Video Interleave\nFile size : 1.18 GiB\nDuration : 1h 44mn\nOverall bit rate : 1 624 Kbps\n\nVideo\nID : 0\nFormat : MPEG-4 Visual\nFormat profile : Advanced Simple@L5\nFormat settings, BVOP : Yes\nFormat settings, QPel : No\nFormat settings, GMC : No warppoints\nFormat settings, Matrix : Default (H.263)\nCodec ID : XVID\nCodec ID/Hint : XviD\nDuration : 1h 44mn\nBit rate : 1 167 Kbps\nWidth : 640 pixels\nHeight : 272 pixels\nDisplay aspect ratio : 2.35:1\nFrame rate : 23.976 fps\nColor space : YUV\nChroma subsampling : 4:2:0\nBit depth : 8 bits\nScan type : Progressive\nBits/(Pixel*Frame) : 0.280\nStream size : 869 MiB (72%)\nWriting library : XviD 1.2.1 (UTC 2008-12-04)\n\nAudio\nID : 1\nFormat : AC-3\nFormat/Info : Audio Coding 3\nMode extension : CM (complete main)\nCodec ID : 2000\nDuration : 1h 44mn\nBit rate mode : Constant\nBit rate : 448 Kbps\nChannel(s) : 6 channels\nChannel positions : Front: L C R, Side: L R, LFE\nSampling rate : 48.0 KHz\nBit depth : 16 bits\nStream size : 334 MiB (28%)\nAlignment : Aligned on interleaves\nInterleave, duration : 42 ms (1.00 video frame)\nInterleave, preload duration : 512 ms\n\n\nPlot:\nA fisherman abandons his big-city life to find himself in the wild.\n\n\nPoster:\n\n &lt;a href=&quot;\nhttp://i.imgur.com/Ja1jv.jpg&quot; rel=&quot;nofollow&quot; target=&quot;_NEW&quot;&gt;\nhttp://i.imgur.com/Ja1jv.jpg&lt;/a&gt;\n\n\nScreens:\n\n &lt;a href=&quot;\nhttp://i.imgur.com/UcvlU.png&quot; rel=&quot;nofollow&quot; target=&quot;_NEW&quot;&gt;\nhttp://i.imgur.com/UcvlU.png&lt;/a&gt;\n &lt;a href=&quot;\nhttp://i.imgur.com/1pL5M.png&quot; rel=&quot;nofollow&quot; target=&quot;_NEW&quot;&gt;\nhttp://i.imgur.com/1pL5M.png&lt;/a&gt;\n &lt;a href=&quot;\nhttp://i.imgur.com/NfsbP.png&quot; rel=&quot;nofollow&quot; target=&quot;_NEW&quot;&gt;\nhttp://i.imgur.com/NfsbP.png&lt;/a&gt;\n\n\nENJOY!","torrent":{"xt":"urn:btih:482f20c5de836a9fb5e46d40baf156eb9081eea1","amp;dn":"The.River.Why.2010.BRRip.XviD.Ac3.Feel-Free","amp;tr":["udp%3A%2F%2Ftracker.openbittorrent.com%3A80","udp%3A%2F%2Fopen.demonii.com%3A1337","udp%3A%2F%2Ftracker.coppersurfer.tk%3A6969","udp%3A%2F%2Fexodus.desync.com%3A6969"],"infoHash":"482f20c5de836a9fb5e46d40baf156eb9081eea1","infoHashBuffer":{"type":"Buffer","data":[72,47,32,197,222,131,106,159,181,228,109,64,186,241,86,235,144,129,238,161]},"announce":[],"urlList":[]}}